<svg  width="24" height="24" viewBox="0 0 24 24" fill="none" xmlns="http://www.w3.org/2000/svg">
      <path d="M17.47 6.06986C16.4271 6.08821 15.4224 6.46507 14.6247 7.13708C13.8271 7.80909 13.2851 8.73526 13.09 9.75986C12.1107 8.23781 11.3436 6.58928 10.81 4.85986H8.55V10.8599C8.55 11.4274 8.32454 11.9717 7.92321 12.3731C7.52188 12.7744 6.97756 12.9999 6.41 12.9999C5.84244 12.9999 5.29812 12.7744 4.89679 12.3731C4.49546 11.9717 4.27 11.4274 4.27 10.8599V4.85986L2 4.90986V10.9099C2.00663 12.0768 2.47656 13.1933 3.30641 14.0138C4.13626 14.8343 5.25805 15.2915 6.425 15.2849C7.59195 15.2782 8.70848 14.8083 9.52895 13.9785C10.3494 13.1486 10.8066 12.0268 10.8 10.8599V9.85986C11.2798 10.8009 11.8314 11.7036 12.45 12.5599L11.07 19.1699H13.39L14.39 14.3599C15.3168 14.9555 16.3984 15.265 17.5 15.2499C18.712 15.2499 19.8744 14.7684 20.7315 13.9113C21.5885 13.0543 22.07 11.8919 22.07 10.6799C22.07 9.46782 21.5885 8.30543 20.7315 7.44839C19.8744 6.59134 18.712 6.10986 17.5 6.10986L17.47 6.06986ZM17.47 12.8999C16.5303 12.8695 15.6298 12.5164 14.92 11.8999L15.15 10.9899V10.9399C15.31 9.93986 15.81 8.33986 17.5 8.33986C17.7963 8.33723 18.0902 8.39315 18.3649 8.50441C18.6395 8.61568 18.8895 8.7801 19.1004 8.98824C19.3113 9.19637 19.479 9.44412 19.594 9.71726C19.7089 9.9904 19.7687 10.2835 19.77 10.5799C19.7486 11.1798 19.504 11.7502 19.0841 12.1793C18.6643 12.6084 18.0994 12.8654 17.5 12.8999H17.47Z" fill="currentColor" />
    </svg>